<svg width="121" height="121" xmlns="http://www.w3.org/2000/svg" xmlns:xlink="http://www.w3.org/1999/xlink" xml:space="preserve" overflow="hidden"><defs><clipPath id="clip0"><rect x="148" y="1130" width="121" height="121"/></clipPath></defs><g clip-path="url(#clip0)" transform="translate(-148 -1130)"><path d="M96.9778 227.687 193.956 227.687 193.956 257.202 210.821 257.202 210.821 227.687 307.799 227.687 307.799 257.202 324.665 257.202 324.665 210.821 210.821 210.821 210.821 181.306 193.956 181.306 193.956 210.821 80.1121 210.821 80.1121 257.202 96.9778 257.202 96.9778 227.687Z" transform="matrix(1.00003 0 0 1 5.88612 1085.41)"/><path d="M316.232 274.068C292.945 274.068 274.068 292.945 274.068 316.232 274.068 339.519 292.945 358.396 316.232 358.396 339.519 358.396 358.396 339.519 358.396 316.232 358.396 292.945 339.519 274.068 316.232 274.068ZM316.232 288.062C322.897 288.06 328.301 293.461 328.304 300.125 328.306 306.79 322.905 312.194 316.24 312.197 309.576 312.199 304.171 306.798 304.169 300.134 304.169 300.131 304.169 300.128 304.169 300.125 304.169 293.463 309.57 288.062 316.232 288.062ZM340.363 337.563 292.101 337.563 292.101 327.473C292.111 325.575 293.004 323.79 294.517 322.645 298.086 320.08 302.084 318.174 306.323 317.016 309.522 315.963 312.865 315.422 316.232 315.41 319.595 315.508 322.931 316.048 326.153 317.016 330.454 318.004 334.485 319.926 337.959 322.645 339.519 323.752 340.425 325.562 340.375 327.473Z" transform="matrix(1.00003 0 0 1 5.88612 1085.41)"/><path d="M202.389 274.068C179.102 274.068 160.224 292.945 160.224 316.232 160.224 339.519 179.102 358.396 202.389 358.396 225.675 358.396 244.553 339.519 244.553 316.232 244.553 292.945 225.675 274.068 202.389 274.068ZM202.389 288.062C209.053 288.06 214.458 293.461 214.46 300.125 214.463 306.79 209.061 312.194 202.397 312.197 195.732 312.199 190.328 306.798 190.325 300.134 190.325 300.131 190.325 300.128 190.325 300.125 190.325 293.463 195.726 288.062 202.389 288.062ZM226.519 337.563 178.258 337.563 178.258 327.473C178.268 325.575 179.161 323.79 180.674 322.645 184.242 320.08 188.24 318.174 192.48 317.016 195.678 315.963 199.022 315.422 202.389 315.41 205.752 315.508 209.088 316.048 212.31 317.016 216.611 318.004 220.641 319.926 224.116 322.645 225.675 323.752 226.581 325.562 226.532 327.473Z" transform="matrix(1.00003 0 0 1 5.88612 1085.41)"/><path d="M88.545 274.068C65.2585 274.068 46.3807 292.945 46.3807 316.232 46.3807 339.519 65.2585 358.396 88.545 358.396 111.831 358.396 130.709 339.519 130.709 316.232 130.709 292.945 111.831 274.068 88.545 274.068ZM88.545 288.062C95.2095 288.06 100.614 293.461 100.617 300.125 100.619 306.79 95.2179 312.194 88.5534 312.197 81.8889 312.199 76.4843 306.798 76.4818 300.134 76.4818 300.131 76.4818 300.128 76.4818 300.125 76.4818 293.463 81.8826 288.062 88.545 288.062ZM112.676 337.563 64.4144 337.563 64.4144 327.473C64.4241 325.575 65.3171 323.79 66.8304 322.645 70.3987 320.08 74.3968 318.174 78.6364 317.016 81.8345 315.963 85.1782 315.422 88.545 315.41 91.908 315.508 95.244 316.048 98.4662 317.016 102.767 318.004 106.797 319.926 110.272 322.645 111.831 323.752 112.738 325.562 112.688 327.473Z" transform="matrix(1.00003 0 0 1 5.88612 1085.41)"/><path d="M202.389 164.441C234.99 164.441 261.418 138.012 261.418 105.411 261.418 72.8093 234.99 46.3807 202.389 46.3807 169.787 46.3807 143.359 72.8093 143.359 105.411 143.359 138.012 169.787 164.441 202.389 164.441ZM202.389 65.9702C211.717 65.9702 219.28 73.5324 219.28 82.8612 219.28 92.1901 211.717 99.7522 202.389 99.7522 193.06 99.7522 185.497 92.1901 185.497 82.8612 185.5 73.5337 193.061 65.9727 202.389 65.9702ZM168.606 121.146C168.621 118.496 169.868 116.002 171.98 114.4 176.972 110.812 182.565 108.143 188.495 106.52 192.978 105.039 197.667 104.276 202.389 104.26 207.097 104.399 211.766 105.156 216.277 106.511 222.293 107.898 227.931 110.588 232.793 114.392 234.972 115.937 236.237 118.467 236.166 121.138L236.166 136.342 168.606 136.342Z" transform="matrix(1.00003 0 0 1 5.88612 1085.41)"/></g></svg>