<svg width="96" height="96" xmlns="http://www.w3.org/2000/svg" xmlns:xlink="http://www.w3.org/1999/xlink" xml:space="preserve" overflow="hidden"><defs><clipPath id="clip0"><rect x="83" y="598" width="96" height="96"/></clipPath></defs><g clip-path="url(#clip0)" transform="translate(-83 -598)"><path d="M131 658C124.4 658 119 652.6 119 646 119 639.4 124.4 634 131 634 137.6 634 143 639.4 143 646 143 652.6 137.6 658 131 658ZM158 638.5C157.4 636.3 156.5 634.2 155.4 632.3L157.9 624.8 152.2 619.1 144.7 621.6C142.7 620.5 140.6 619.6 138.4 619L135 612 127 612 123.5 619C121.3 619.6 119.2 620.5 117.3 621.6L109.8 619.1 104.1 624.8 106.6 632.3C105.5 634.3 104.6 636.4 104 638.6L97 642 97 650 104 653.5C104.6 655.7 105.5 657.8 106.6 659.7L104.1 667.2 109.8 672.9 117.3 670.4C119.3 671.5 121.4 672.4 123.6 673L127.1 680 135.1 680 138.6 673C140.8 672.4 142.9 671.5 144.8 670.4L152.3 672.9 158 667.2 155.5 659.7C156.6 657.7 157.5 655.6 158.1 653.4L165.1 649.9 165.1 641.9 158 638.5Z"/></g></svg>