<svg width="96" height="96" xmlns="http://www.w3.org/2000/svg" xmlns:xlink="http://www.w3.org/1999/xlink" xml:space="preserve" overflow="hidden"><defs><clipPath id="clip0"><rect x="0" y="989" width="96" height="96"/></clipPath></defs><g clip-path="url(#clip0)" transform="matrix(1 0 0 1 0 -989)"><path d="M48 1035 33 1036.1 33 1018C33 1009.7 39.7 1003 48 1003 56.3 1003 63 1009.7 63 1018L63 1024 69 1024 69 1018C69 1006.4 59.6 997 48 997 36.4 997 27 1006.4 27 1018L27 1036.5 20 1037 20 1075 48 1077 76 1075 76 1037 48 1035ZM50 1061.7 50 1067 46 1067 46 1061.7C43.7 1060.9 42 1058.7 42 1056 42 1052.7 44.7 1050 48 1050 51.3 1050 54 1052.7 54 1056 54 1058.6 52.3 1060.8 50 1061.7Z"/></g></svg>